<?xml version="1.0" encoding="UTF-8"?><svg id="Calque_1" xmlns="http://www.w3.org/2000/svg" xmlns:xlink="http://www.w3.org/1999/xlink" viewBox="0 0 4645.1 1281.24"><defs><style>.cls-1{fill:#fff;}.cls-2{fill:url(#Dégradé_sans_nom_2);}.cls-3{fill:url(#Dégradé_sans_nom_5);}.cls-4{fill:url(#Dégradé_sans_nom_5-2);}.cls-5{fill:url(#Dégradé_sans_nom_7);}.cls-6{fill:#8176ff;}</style><linearGradient id="Dégradé_sans_nom_7" x1="2157.17" y1="-139.27" x2="2428.92" y2="1142.24" gradientUnits="userSpaceOnUse"><stop offset=".13" stop-color="#c0bcee"/><stop offset="1" stop-color="#8176ff"/></linearGradient><linearGradient id="Dégradé_sans_nom_5" x1="3996.01" y1="695.96" x2="4075.12" y2="769.68" gradientUnits="userSpaceOnUse"><stop offset=".47" stop-color="#c0bcee"/><stop offset="1" stop-color="#8176ff"/></linearGradient><linearGradient id="Dégradé_sans_nom_5-2" x1="4168.95" y1="685.27" x2="4089.09" y2="774.55" xlink:href="#Dégradé_sans_nom_5"/><linearGradient id="Dégradé_sans_nom_2" x1="7819.17" y1="2388.51" x2="7893.04" y2="2301.83" gradientTransform="translate(11485.25 4351.97) rotate(-137.88) scale(1 -1)" gradientUnits="userSpaceOnUse"><stop offset="0" stop-color="#c0bcee"/><stop offset="1" stop-color="#8176ff"/></linearGradient></defs><rect class="cls-5" y="0" width="4645.1" height="1281.24"/><circle class="cls-1" cx="4065.88" cy="752.36" r="257.39"/><g><path class="cls-6" d="M4046.28,658.77c19.41,32.07,25.03,71.95,15.94,108.28-.62,1.26-.67,2.46-.64,3.9-1.55,8.14-3.61,16.49-8.09,23.68,0,0,.12-.21,.12-.21-.52,1.02-.59,3.03-1.18,4.29-.11,.28-.28,.63-.35,.79,0,0-2.35,4.8-2.35,4.8-4.57,9.86-11.24,18.79-18.95,26.44-2.28,2.26-4.68,4.38-7.18,6.42-9.25,6.68-19.37,12.08-30.28,15.5-28.76,8.43-62.46,4.14-85.38-16.09-1.88-1.76-4.21-3.88-5.85-5.88-7.49-8.19-12.21-18.78-14.35-29.59-4.39-21.35,3.76-44.86,24.91-53.62,11.01-4.73,24.75-4.44,34.46,3.16,7.14,5.67,11.66,15.93,8.64,24.87-.8,2.41-2.26,4.38-3.94,6.23-1.2,1.5-2.68,2.83-4.43,3.65-4.58,2.29-10.74,1.15-13.64-3.21-1.44-2.04-2.1-4.61-1.72-7.03-.69,7.96,8.07,12.98,14.81,9.17,2.1-.98,3.76-3.47,4.98-4.9,3.6-4.82,3.58-11.36,1.23-16.73-2.91-7.12-9.31-12.15-16.7-13.97-8.96-2.38-18.73-.03-26.57,4.72-15.76,9.79-20.67,29.2-16.9,46.63,2.1,9.88,6.49,19.46,13.43,26.85,1.55,1.8,3.67,3.75,5.43,5.33,16.11,14.25,38.49,19.66,59.65,18.31,17.3-.91,33.7-7.31,47.77-17.23,2.76-1.93,5.3-4.28,7.76-6.58,6.19-5.91,11.51-12.76,15.89-20.12,1.15-2.35,3.59-7.05,4.75-9.4,.85-1.71,.66-3.19,1.69-5.14,4.28-6.53,6.32-14.14,7.96-21.79,0,0-.05,.45-.05,.45,0-.86,.05-1.79,.23-2.77,10.47-33.94,6.61-76.25-11.12-109.21h0Z"/><path class="cls-6" d="M4112.62,767.04c-38.9-20.87-39.85-99.54-.73-130.22,14.79-11.59,31.47-13.34,37.13-13.86,45.29-4.16,94.31,32.48,93.58,71.12-.96,50.86-87.93,95.52-129.98,72.96Z"/><path class="cls-6" d="M4052.41,772.74c37.56-20.96,39.18-98.68,1.85-128.63-14.11-11.32-30.13-12.89-35.56-13.36-43.49-3.71-90.92,32.91-90.56,71.07,.47,50.23,83.66,93.58,124.27,70.92Z"/><path class="cls-3" d="M4073.54,774.13c25.14-22.67,14.15-83.73-18.8-100.93-12.45-6.5-24.82-5.05-29-4.51-33.49,4.36-63.63,40.93-57.37,70.72,8.24,39.21,78,59.22,105.17,34.71Z"/><path class="cls-4" d="M4088.25,772.13c-25.14-22.67-14.15-83.73,18.8-100.93,12.45-6.5,24.82-5.05,29-4.51,33.49,4.36,63.63,40.93,57.37,70.72-8.24,39.21-78,59.22-105.17,34.71Z"/><path class="cls-2" d="M4084.67,764.2c32.94-.36,66.08,50.51,54.32,84.51-4.44,12.85-14.15,19.97-17.47,22.33-26.58,18.95-72.36,12.68-87.89-12.73-20.44-33.45,15.43-93.72,51.04-94.11Z"/><path class="cls-6" d="M4074.87,757.1c2.31-14.14-22.3-23.59-19.19-34.34,3.82-13.23,46.08-16.37,50.51-6.06,3.7,8.62-21.85,20.07-19.19,35.35,3.2,18.36,43.1,19.27,43.43,31.31,.29,10.49-29.65,22.99-57.58,21.21-18.6-1.18-40.37-8.96-40.4-17.17-.05-11.09,39.59-12.96,42.42-30.3Z"/></g></svg>