<?xml version="1.0" encoding="UTF-8"?><svg id="Calque_1" xmlns="http://www.w3.org/2000/svg" xmlns:xlink="http://www.w3.org/1999/xlink" viewBox="0 0 870.48 271.95"><defs><style>.cls-1{font-family:BelganAesthetic-Regular, 'Belgan Aesthetic';font-size:100px;stroke:#8176ff;stroke-miterlimit:10;}.cls-1,.cls-2{fill:#8176ff;}.cls-3{fill:url(#Dégradé_sans_nom_2);}.cls-4{fill:url(#Dégradé_sans_nom_5);}.cls-5{fill:url(#Dégradé_sans_nom_5-2);}.cls-6{letter-spacing:-.05em;}</style><linearGradient id="Dégradé_sans_nom_5" x1="118.31" y1="78.97" x2="197.42" y2="152.69" gradientUnits="userSpaceOnUse"><stop offset=".47" stop-color="#c0bcee"/><stop offset="1" stop-color="#8176ff"/></linearGradient><linearGradient id="Dégradé_sans_nom_5-2" x1="291.25" y1="68.28" x2="211.39" y2="157.57" xlink:href="#Dégradé_sans_nom_5"/><linearGradient id="Dégradé_sans_nom_2" x1="-2485.02" y1="-702.79" x2="-2411.15" y2="-789.46" gradientTransform="translate(-2109.18 -882.12) rotate(-137.88) scale(1 -1)" gradientUnits="userSpaceOnUse"><stop offset="0" stop-color="#c0bcee"/><stop offset="1" stop-color="#8176ff"/></linearGradient></defs><path class="cls-2" d="M91.76,12.85c33.66,16.51,59.93,47.02,71.91,82.5,.16,1.4,.76,2.43,1.57,3.63,3.09,7.69,5.87,15.83,5.98,24.3,0,0-.01-.25-.01-.25,.11,1.14,1.14,2.87,1.33,4.25,.06,.29,.11,.68,.13,.85l.62,5.31c1.49,10.77,.69,21.89-1.66,32.49-.7,3.14-1.58,6.21-2.57,9.28-4.17,10.62-9.77,20.63-17.11,29.4-19.64,22.63-50.33,37.23-80.54,32.59-2.53-.46-5.64-1-8.1-1.79-10.73-2.85-20.42-9.21-28.06-17.15-15.23-15.59-21.07-39.78-8.01-58.58,6.71-9.93,18.43-17.11,30.71-15.96,10.81,.98,22.34,10.12,21.05,21.82-.41,2.46-.6,5.13-2.04,7.28-2.61,4.4-8.42,6.77-13.21,4.67-2.31-.93-4.25-2.75-5.25-4.99,3.76,7.08,13.75,6.58,17.42-.29,1.24-1.96,1.29-4.95,1.54-6.82,.42-6-3.13-11.5-8-14.74-6.27-4.41-14.42-5.2-21.61-2.74-8.83,2.84-15.78,10.09-19.81,18.33-7.98,16.75-1.62,35.74,10.97,48.37,7.1,7.18,15.97,12.87,25.81,15.33,2.28,.68,5.11,1.17,7.45,1.55,21.25,3.29,43.01-4.25,60.09-16.81,14.07-10.11,24.41-24.36,30.89-40.3,1.28-3.11,2.15-6.46,2.98-9.73,2.02-8.32,2.79-16.95,2.5-25.52-.3-2.6-.79-7.87-1.07-10.47-.21-1.9-1.17-3.04-1.35-5.24,.07-7.81-2.32-15.31-5.07-22.64,0,0,.21,.4,.21,.4-.46-.73-.93-1.53-1.31-2.46-9.53-34.21-35.64-67.74-68.35-85.9h0Z"/><path class="cls-2" d="M234.92,150.06c-38.9-20.87-39.85-99.54-.73-130.22,14.79-11.59,31.47-13.34,37.13-13.86,45.29-4.16,94.31,32.48,93.58,71.12-.96,50.86-87.93,95.52-129.98,72.96Z"/><path class="cls-2" d="M174.71,155.76c37.56-20.96,39.18-98.68,1.85-128.63-14.11-11.32-30.13-12.89-35.56-13.36-43.49-3.71-90.92,32.91-90.56,71.07,.47,50.23,83.66,93.58,124.27,70.92Z"/><path class="cls-4" d="M195.84,157.14c25.14-22.67,14.15-83.73-18.8-100.93-12.45-6.5-24.82-5.05-29-4.51-33.49,4.36-63.63,40.93-57.37,70.72,8.24,39.21,78,59.22,105.17,34.71Z"/><path class="cls-5" d="M210.56,155.14c-25.14-22.67-14.15-83.73,18.8-100.93,12.45-6.5,24.82-5.05,29-4.51,33.49,4.36,63.63,40.93,57.37,70.72-8.24,39.21-78,59.22-105.17,34.71Z"/><path class="cls-3" d="M206.97,147.21c32.94-.36,66.08,50.51,54.32,84.51-4.44,12.85-14.15,19.97-17.47,22.33-26.58,18.95-72.36,12.68-87.89-12.73-20.44-33.45,15.43-93.72,51.04-94.11Z"/><path class="cls-2" d="M197.17,140.12c2.31-14.14-22.3-23.59-19.19-34.34,3.82-13.23,46.08-16.37,50.51-6.06,3.7,8.62-21.85,20.07-19.19,35.35,3.2,18.36,43.1,19.27,43.43,31.31,.29,10.49-29.65,22.99-57.58,21.21-18.6-1.18-40.37-8.96-40.4-17.17-.05-11.09,39.59-12.96,42.42-30.3Z"/><text class="cls-1" transform="translate(382.11 172.97)"><tspan x="0" y="0">Jolie </tspan><tspan class="cls-6" x="194.5" y="0">P</tspan><tspan x="247.2" y="0">ensée</tspan></text></svg>